<svg width="50" height="50" viewBox="0 0 50 50" fill="none" xmlns="http://www.w3.org/2000/svg">
<g clip-path="url(#clip0_6_3)">
<path fill-rule="evenodd" clip-rule="evenodd" d="M46.875 25C46.875 19.1984 44.5703 13.6344 40.468 9.53204C36.3656 5.42968 30.8016 3.125 25 3.125C19.1984 3.125 13.6344 5.42968 9.53204 9.53204C5.42968 13.6344 3.125 19.1984 3.125 25C3.125 30.8016 5.42968 36.3656 9.53204 40.468C13.6344 44.5703 19.1984 46.875 25 46.875C30.8016 46.875 36.3656 44.5703 40.468 40.468C44.5703 36.3656 46.875 30.8016 46.875 25ZM0 25C0 18.3696 2.63392 12.0107 7.32233 7.32233C12.0107 2.63392 18.3696 0 25 0C31.6304 0 37.9893 2.63392 42.6777 7.32233C47.3661 12.0107 50 18.3696 50 25C50 31.6304 47.3661 37.9893 42.6777 42.6777C37.9893 47.3661 31.6304 50 25 50C18.3696 50 12.0107 47.3661 7.32233 42.6777C2.63392 37.9893 0 31.6304 0 25ZM23.4375 14.0625C23.4375 13.6481 23.6021 13.2507 23.8951 12.9576C24.1882 12.6646 24.5856 12.5 25 12.5C25.4144 12.5 25.8118 12.6646 26.1049 12.9576C26.3979 13.2507 26.5625 13.6481 26.5625 14.0625V32.1656L33.2687 25.4562C33.5621 25.1629 33.9601 24.998 34.375 24.998C34.7899 24.998 35.1879 25.1629 35.4813 25.4562C35.7746 25.7496 35.9395 26.1476 35.9395 26.5625C35.9395 26.9774 35.7746 27.3754 35.4813 27.6688L26.1063 37.0438C25.9611 37.1893 25.7887 37.3047 25.5989 37.3835C25.409 37.4622 25.2055 37.5028 25 37.5028C24.7945 37.5028 24.591 37.4622 24.4011 37.3835C24.2113 37.3047 24.0389 37.1893 23.8937 37.0438L14.5187 27.6688C14.2254 27.3754 14.0605 26.9774 14.0605 26.5625C14.0605 26.1476 14.2254 25.7496 14.5187 25.4562C14.8121 25.1629 15.2101 24.998 15.625 24.998C16.0399 24.998 16.4379 25.1629 16.7313 25.4562L23.4375 32.1656V14.0625Z" fill="#FFF8F8"/>
</g>
<defs>
<clipPath id="clip0_6_3">
<rect width="50" height="50" fill="white" transform="translate(50 50) rotate(-180)"/>
</clipPath>
</defs>
</svg>
