<svg width="120" height="120" viewBox="0 0 120 120" fill="none" xmlns="http://www.w3.org/2000/svg">
<g clip-path="url(#clip0_26_1186)">
<rect width="120" height="120" fill="white"/>
<ellipse cx="59.7242" cy="60" rx="46.5517" ry="45" fill="url(#paint0_radial_26_1186)"/>
<g filter="url(#filter0_bd_26_1186)">
<rect x="8" y="10" width="103.448" height="100" rx="10" fill="white" fill-opacity="0.05" shape-rendering="crispEdges"/>
</g>
<path d="M85.1157 35.459C85.2663 35.6042 85.3857 35.7766 85.4672 35.9664C85.5487 36.1563 85.5906 36.3598 85.5906 36.5653C85.5906 36.7708 85.5487 36.9743 85.4672 37.1641C85.3857 37.354 85.2663 37.5264 85.1157 37.6715L71.7095 50.6278H80.7386C81.1673 50.6278 81.5784 50.7924 81.8815 51.0854C82.1847 51.3785 82.355 51.7759 82.355 52.1903C82.355 52.6047 82.1847 53.0021 81.8815 53.2951C81.5784 53.5882 81.1673 53.7528 80.7386 53.7528H67.8076C67.3789 53.7528 66.9677 53.5882 66.6646 53.2951C66.3615 53.0021 66.1912 52.6047 66.1912 52.1903V39.6903C66.1912 39.2759 66.3615 38.8785 66.6646 38.5854C66.9677 38.2924 67.3789 38.1278 67.8076 38.1278C68.2362 38.1278 68.6474 38.2924 68.9505 38.5854C69.2536 38.8785 69.4239 39.2759 69.4239 39.6903V48.4184L82.827 35.459C82.9771 35.3135 83.1555 35.1981 83.3518 35.1193C83.5482 35.0405 83.7587 35 83.9713 35C84.184 35 84.3945 35.0405 84.5909 35.1193C84.7872 35.1981 84.9656 35.3135 85.1157 35.459V35.459ZM45.6761 39.1528C45.4852 38.9155 45.2444 38.7201 44.9694 38.5797C44.6945 38.4393 44.3918 38.3571 44.0814 38.3385C43.7711 38.3199 43.4602 38.3653 43.1694 38.4717C42.8786 38.5782 42.6146 38.7432 42.3948 38.9559L39.0522 42.1903C37.4907 43.7028 36.9153 45.8434 37.5974 47.7215C40.4285 55.4953 45.0337 62.5531 51.0716 68.3715C57.0907 74.208 64.3919 78.6598 72.4336 81.3965C74.3765 82.0559 76.591 81.4997 78.1556 79.9903L81.4983 76.759C81.7183 76.5466 81.889 76.2914 81.9992 76.0103C82.1093 75.7292 82.1563 75.4287 82.137 75.1287C82.1177 74.8287 82.0327 74.5361 81.8874 74.2703C81.7422 74.0045 81.5401 73.7717 81.2946 73.5872L73.8366 67.9809C73.5744 67.7843 73.2693 67.6478 72.9445 67.5818C72.6197 67.5157 72.2836 67.5218 71.9616 67.5997L64.8819 69.309C63.9369 69.5374 62.9468 69.5252 62.0081 69.2739C61.0694 69.0225 60.214 68.5405 59.5252 67.8747L51.5856 60.1965C50.8962 59.531 50.397 58.7043 50.1364 57.7969C49.8758 56.8894 49.8627 55.9322 50.0985 55.0184L51.8701 48.1747C51.9506 47.8634 51.9569 47.5385 51.8886 47.2246C51.8203 46.9106 51.6791 46.6157 51.4757 46.3622L45.6761 39.1528V39.1528ZM39.9541 36.5997C40.5198 36.0526 41.1994 35.6282 41.9479 35.3545C42.6963 35.0809 43.4964 34.9643 44.295 35.0125C45.0936 35.0606 45.8725 35.2725 46.5799 35.634C47.2873 35.9954 47.9071 36.4983 48.3981 37.109L54.1976 44.3153C55.2612 45.6372 55.6362 47.359 55.216 48.984L53.4476 55.8278C53.3562 56.1823 53.3611 56.5536 53.462 56.9056C53.5628 57.2577 53.7561 57.5786 54.0231 57.8372L61.966 65.5153C62.2337 65.7739 62.5663 65.9611 62.9311 66.0585C63.2959 66.156 63.6807 66.1605 64.0479 66.0715L71.1244 64.3622C71.9539 64.1617 72.8198 64.1461 73.6565 64.3166C74.4932 64.4872 75.2789 64.8393 75.9541 65.3465L83.4088 70.9528C86.0888 72.9684 86.3345 76.7965 83.9358 79.1122L80.5931 82.3434C78.2009 84.6559 74.6254 85.6715 71.2925 84.5372C62.7618 81.6357 55.0164 76.9148 48.6308 70.7247C42.2277 64.5528 37.344 57.0667 34.342 48.8215C33.1718 45.6028 34.2224 42.1434 36.6147 39.8309L39.9573 36.5997H39.9541Z" fill="white"/>
</g>
<defs>
<filter id="filter0_bd_26_1186" x="-12" y="-10" width="143.448" height="140" filterUnits="userSpaceOnUse" color-interpolation-filters="sRGB">
<feFlood flood-opacity="0" result="BackgroundImageFix"/>
<feGaussianBlur in="BackgroundImage" stdDeviation="10"/>
<feComposite in2="SourceAlpha" operator="in" result="effect1_backgroundBlur_26_1186"/>
<feColorMatrix in="SourceAlpha" type="matrix" values="0 0 0 0 0 0 0 0 0 0 0 0 0 0 0 0 0 0 127 0" result="hardAlpha"/>
<feMorphology radius="2" operator="dilate" in="SourceAlpha" result="effect2_dropShadow_26_1186"/>
<feOffset dy="4"/>
<feGaussianBlur stdDeviation="2.5"/>
<feComposite in2="hardAlpha" operator="out"/>
<feColorMatrix type="matrix" values="0 0 0 0 0 0 0 0 0 0 0 0 0 0 0 0 0 0 0.25 0"/>
<feBlend mode="normal" in2="effect1_backgroundBlur_26_1186" result="effect2_dropShadow_26_1186"/>
<feBlend mode="normal" in="SourceGraphic" in2="effect2_dropShadow_26_1186" result="shape"/>
</filter>
<radialGradient id="paint0_radial_26_1186" cx="0" cy="0" r="1" gradientUnits="userSpaceOnUse" gradientTransform="translate(59.7242 60) rotate(90) scale(45 46.5517)">
<stop offset="0.385417" stop-color="#02FD1B"/>
<stop offset="1" stop-color="#02FD1B" stop-opacity="0"/>
</radialGradient>
<clipPath id="clip0_26_1186">
<rect width="120" height="120" fill="white"/>
</clipPath>
</defs>
</svg>
